HIERARCHY
ROOT Hips
{
	OFFSET 0.000000 0.000000 0.000000
	CHANNELS 6 Xposition Yposition Zposition Zrotation Yrotation Xrotation 
	JOINT LHipJoint
	{
		OFFSET 0.000000 0.000000 0.000000
		CHANNELS 3 Zrotation Yrotation Xrotation
		JOINT LeftUpLeg
		{
			OFFSET 1.363060 -1.794630 0.839290
			CHANNELS 3 Zrotation Yrotation Xrotation
			JOINT LeftLeg
			{
				OFFSET 2.448110 -6.726130 0.000000
				CHANNELS 3 Zrotation Yrotation Xrotation
				JOINT LeftFoot
				{
					OFFSET 2.562200 -7.039590 0.000000
					CHANNELS 3 Zrotation Yrotation Xrotation
					JOINT LeftToeBase
					{
						OFFSET 0.157640 -0.433110 2.322550
						CHANNELS 3 Zrotation Yrotation Xrotation
						End Site
						{
							OFFSET 0.000000 0.000000 0.000000
						}
					}
				}
			}
		}
	}
	JOINT RHipJoint
	{
		OFFSET 0.000000 0.000000 0.000000
		CHANNELS 3 Zrotation Yrotation Xrotation
		JOINT RightUpLeg
		{
			OFFSET -1.305520 -1.794630 0.839290
			CHANNELS 3 Zrotation Yrotation Xrotation
			JOINT RightLeg
			{
				OFFSET -2.542530 -6.985550 0.000000
				CHANNELS 3 Zrotation Yrotation Xrotation
				JOINT RightFoot
				{
					OFFSET -2.568260 -7.056230 0.000000
					CHANNELS 3 Zrotation Yrotation Xrotation
					JOINT RightToeBase
					{
						OFFSET -0.164730 -0.452590 2.363150
						CHANNELS 3 Zrotation Yrotation Xrotation
						End Site
						{
							OFFSET 0.000000 0.000000 0.000000
						}
					}
				}
			}
		}
	}
}
MOTION
Frames: 19
Frame Time: 0.008333
5.427323 17.418129 2.361062 166.458506 -84.531095 -149.370556 -9.805857 1.744727 2.705962 -14.360325 -1.593362 -16.883186 -2.799679 -1.326395 5.220021 0.612993 3.090937 -5.160221 0.225200 -0.000000 -24.714800 10.147477 -0.366784 1.175819 8.003723 1.458732 -42.885521 -0.754835 -3.764426 58.595160 -1.616976 -7.303730 -1.275943 -1.082600 0.000000 -32.069501
5.169368 17.422386 2.369296 168.588761 -84.676901 -151.692036 -9.943742 1.826045 2.428849 -14.205143 -0.343728 -15.211927 -2.836730 -1.374991 4.155762 0.484693 2.254745 -5.081350 0.179100 -0.000000 -25.585300 9.929479 -0.308760 1.324653 8.388471 1.889982 -43.635345 -0.498894 -3.646324 55.924105 -1.575766 -6.986183 -1.706052 -1.041200 -0.000000 -31.752400
4.910593 17.417624 2.374717 169.719151 -84.899895 -153.012990 -10.061278 1.913191 2.174811 -14.083999 0.789712 -13.581080 -2.874680 -1.416703 3.198729 0.369133 1.450961 -5.044362 0.136600 0.000000 -26.578901 9.723486 -0.268858 1.465493 8.694240 2.165364 -44.256672 -0.209292 -3.508748 52.925309 -1.510741 -6.531199 -2.063369 -0.994100 -0.000001 -31.562800
4.650983 17.404195 2.376858 169.714059 -85.196368 -153.195155 -10.159937 2.005257 1.941684 -13.997536 1.795266 -11.979467 -2.913185 -1.451312 2.342932 0.265266 0.686161 -5.029040 0.099900 0.000000 -27.715100 9.532300 -0.244921 1.603729 8.905099 2.303920 -44.746727 0.112979 -3.345787 49.597316 -1.410018 -5.894476 -2.293711 -0.940600 -0.000000 -31.629100
4.391110 17.382639 2.375583 168.413492 -85.555024 -152.092029 -10.241976 2.099296 1.716153 -13.939775 2.692442 -10.380814 -2.952504 -1.477126 1.581821 0.169503 -0.053318 -5.010879 0.069300 0.000000 -29.016700 9.359571 -0.233326 1.738521 9.011744 2.324204 -45.085284 0.465416 -3.151466 45.945303 -1.264616 -5.057304 -2.337826 -0.880200 0.000000 -32.075499
4.130615 17.353457 2.370363 165.391332 -85.969092 -149.267274 -10.303655 2.193697 1.500495 -13.912152 3.467575 -8.792628 -2.993546 -1.495023 0.919527 0.080627 -0.767279 -4.974022 0.044500 -0.000000 -30.475000 9.211171 -0.231263 1.881178 9.000523 2.245437 -45.295257 0.841676 -2.919778 41.990257 -1.071997 -4.034184 -2.144220 -0.811300 -0.000001 -33.029600
3.869648 17.317258 2.361155 160.178979 -86.423577 -144.256212 -10.337190 2.285941 1.285851 -13.904622 4.135332 -7.205565 -3.036700 -1.504405 0.358972 -0.003547 -1.467420 -4.905949 0.024200 -0.000000 -32.074600 9.095759 -0.231946 2.034334 8.871524 2.084929 -45.375040 1.233755 -2.645036 37.760740 -0.835735 -2.863835 -1.694164 -0.726900 -0.000000 -34.515000
3.608195 17.274744 2.347998 152.236327 -86.891499 -136.519188 -10.324557 2.378292 1.067484 -13.903357 4.705595 -5.618955 -3.081216 -1.504045 -0.095096 -0.083274 -2.155978 -4.805559 0.006700 -0.000000 -33.780400 9.028401 -0.220180 2.200851 8.634376 1.860550 -45.328059 1.629680 -2.321381 33.299095 -0.565824 -1.602443 -1.003357 -0.617300 -0.000000 -36.484600
3.346189 17.226637 2.331123 141.356241 -87.312211 -125.851348 -10.247625 2.481419 0.844805 -13.893311 5.189060 -4.037577 -3.124155 -1.489686 -0.441824 -0.156882 -2.822624 -4.682151 -0.009401 0.000000 -35.545601 9.026125 -0.167925 2.378129 8.310761 1.593530 -45.154649 2.013369 -1.942895 28.665522 -0.276078 -0.310642 -0.116091 -0.474500 0.000000 -38.849900
3.083290 17.173731 2.310730 128.267938 -87.591614 -112.982275 -10.115635 2.608764 0.625903 -13.874131 5.591559 -2.476500 -3.162253 -1.455700 -0.679232 -0.221684 -3.445253 -4.553763 -0.025000 -0.000000 -37.319900 9.088438 -0.049950 2.556751 7.925563 1.298789 -44.864409 2.368849 -1.507778 23.943595 0.018722 0.958529 0.902471 -0.296100 0.000000 -41.509700
2.819807 17.116825 2.287534 115.058178 -87.662416 -100.020868 -9.969395 2.757602 0.410234 -13.856354 5.929002 -0.913375 -3.193745 -1.400415 -0.816673 -0.276303 -4.001378 -4.429933 -0.040000 -0.000001 -39.064000 9.187473 0.133281 2.709852 7.505861 0.960595 -44.453273 2.686307 -1.027685 19.244414 0.304875 2.172581 1.966607 -0.084300 0.000000 -44.355601
2.554807 17.056858 2.261889 103.533533 -87.535924 -88.768568 -9.838142 2.916616 0.211275 -13.854390 6.185981 0.630261 -3.220111 -1.328697 -0.830291 -0.319675 -4.470524 -4.332222 -0.053401 0.000000 -40.751100 9.293640 0.356809 2.830013 7.083406 0.549334 -43.973875 2.962005 -0.524776 14.693496 0.569670 3.308030 2.980640 0.151300 -0.000000 -47.267200
2.288120 16.994860 2.234698 94.537441 -87.271106 -80.082007 -9.727540 3.073794 0.029503 -13.858816 6.361868 2.168718 -3.240122 -1.244780 -0.717138 -0.350811 -4.831405 -4.270498 -0.063900 -0.000001 -42.382399 9.390000 0.599766 2.900398 6.718287 0.031169 -43.453963 3.196659 -0.026931 10.433686 0.806051 4.368345 3.843750 0.400200 0.000000 -50.106400
2.017631 16.936267 2.207276 73.739534 -86.709478 -59.609761 -9.691290 3.226963 0.104652 -13.751106 5.441142 3.575380 -3.203659 -1.121759 -0.211268 -0.348875 -4.926046 -4.422418 -0.060500 -0.000000 -43.854200 9.427419 0.907671 2.693365 6.747833 -1.699884 -42.983528 3.501518 0.454260 6.603446 1.062239 5.650428 4.392143 0.708501 -0.000000 -52.820500
1.745904 16.874272 2.179343 70.446209 -86.281454 -56.695677 -9.620360 3.358870 -0.032937 -13.727045 5.457378 5.061288 -3.205339 -1.020289 0.184841 -0.354252 -5.032056 -4.449507 -0.061900 -0.000000 -45.502500 9.466814 1.135582 2.656237 6.682067 -2.440073 -42.519408 3.670103 0.875649 3.319784 1.235406 6.599434 4.714468 0.942700 -0.000001 -55.094600
1.470503 16.814341 2.152346 67.896650 -85.903112 -54.520824 -9.558994 3.481783 -0.135396 -13.656072 5.373422 6.454863 -3.191526 -0.908741 0.733060 -0.344680 -4.987184 -4.509854 -0.059300 0.000000 -47.283600 9.475744 1.335693 2.591929 6.805594 -3.188597 -42.140879 3.813309 1.241429 0.627580 1.371262 7.427351 4.724232 1.127100 0.000000 -56.855600
1.191344 16.757792 2.127378 65.842522 -85.609629 -52.826830 -9.513194 3.592320 -0.206214 -13.523389 5.185509 7.755387 -3.157109 -0.786095 1.411526 -0.320257 -4.782502 -4.560085 -0.055100 0.000000 -49.327900 9.448123 1.492365 2.512969 7.103644 -3.857534 -41.829118 3.933451 1.546096 -1.453800 1.465078 8.071833 4.447350 1.238500 -0.000000 -58.007900
0.907691 16.705683 2.104382 64.127532 -85.405708 -51.422284 -9.482787 3.691743 -0.236601 -13.347539 4.869416 8.906982 -3.101729 -0.651142 2.235952 -0.281985 -4.423476 -4.558822 -0.050900 -0.000000 -51.742200 9.389112 1.593116 2.450727 7.507662 -4.351998 -41.594723 4.028115 1.788379 -2.942505 1.511167 8.450129 3.951916 1.261300 0.000000 -58.525600
0.619170 16.658695 2.083635 62.701206 -85.295566 -50.239557 -9.468065 3.781275 -0.226558 -13.145800 4.414218 9.895770 -3.024001 -0.501934 3.200603 -0.231754 -3.921357 -4.440560 -0.047700 0.000000 -54.622400 9.304996 1.631117 2.420902 7.950456 -4.603306 -41.419892 4.094717 1.963976 -3.856925 1.506757 8.511033 3.322969 1.198600 0.000000 -58.458199
